<svg width="28" height="28" viewBox="0 0 28 28" fill="none" xmlns="http://www.w3.org/2000/svg">
<path fill-rule="evenodd" clip-rule="evenodd" d="M4.86684 4.86719C4.52267 5.21135 4.23234 5.60935 4.00864 6.0484C3.5 7.04665 3.5 8.35344 3.5 10.967V17.0337V17.0337C3.5 17.2822 3.7726 17.434 3.98394 17.3033L6.24169 15.9073L6.33344 15.8504C6.71808 15.6115 7.10494 15.3713 7.54077 15.2592C7.92121 15.1614 8.3175 15.1414 8.70586 15.2004C9.15076 15.2681 9.55984 15.4681 9.96658 15.667L10.0636 15.7144L10.68 16.0143C11.2976 16.3149 11.3713 16.3349 11.4205 16.3414C11.5036 16.3523 11.588 16.3453 11.6681 16.3206C11.7155 16.3061 11.7848 16.2741 12.3438 15.875L14.4038 14.4042L12.1499 12.1503C11.7277 12.5725 11.1443 12.8337 10.5 12.8337C9.21134 12.8337 8.16667 11.789 8.16667 10.5004C8.16667 9.85602 8.42783 9.27269 8.85008 8.85044L4.86684 4.86719ZM16.0765 16.0769L13.6997 17.7739L13.6049 17.8418C13.2098 18.1251 12.8126 18.41 12.3535 18.551C11.9531 18.6741 11.5309 18.7094 11.1156 18.6547C10.6396 18.592 10.2005 18.3772 9.76368 18.1635L9.65896 18.1124L9.04255 17.8124C8.46901 17.5333 8.40131 17.5143 8.35508 17.5072C8.27741 17.4954 8.19815 17.4994 8.12206 17.519C8.07677 17.5306 8.01134 17.5564 7.46882 17.8919L4.07776 19.9887C3.89711 20.1004 3.80678 20.1562 3.74202 20.24C3.68867 20.3091 3.64513 20.4071 3.62962 20.4929C3.61078 20.5972 3.62759 20.6893 3.6612 20.8735C3.73644 21.2858 3.84679 21.6347 4.00864 21.9523C4.45605 22.8304 5.16995 23.5443 6.04804 23.9917C7.0463 24.5004 8.35309 24.5004 10.9667 24.5004H17.0333C19.6469 24.5004 20.9537 24.5004 21.952 23.9917C22.391 23.768 22.789 23.4777 23.1332 23.1335L16.0765 16.0769Z" fill="#A4A4A4"/>
<path fill-rule="evenodd" clip-rule="evenodd" d="M19.9371 5.87714C19.412 5.83424 18.7327 5.83333 17.7333 5.83333H11.6667C11.0223 5.83333 10.5 5.311 10.5 4.66667C10.5 4.02234 11.0223 3.5 11.6667 3.5L17.7815 3.5C18.7206 3.49999 19.4957 3.49997 20.1271 3.55156C20.7829 3.60514 21.3857 3.72013 21.952 4.00864C22.83 4.45605 23.544 5.16996 23.9914 6.04805C24.2799 6.61427 24.3949 7.21709 24.4484 7.87287C24.5 8.50427 24.5 9.27937 24.5 10.2185V16.3333C24.5 16.9777 23.9777 17.5 23.3333 17.5C22.689 17.5 22.1667 16.9777 22.1667 16.3333V10.2667C22.1667 9.26732 22.1658 8.58798 22.1229 8.06288C22.0811 7.55139 22.0053 7.28982 21.9123 7.10736C21.6886 6.66831 21.3317 6.31136 20.8926 6.08765C20.7102 5.99468 20.4486 5.91893 19.9371 5.87714Z" fill="#A4A4A4"/>
<path fill-rule="evenodd" clip-rule="evenodd" d="M2.67472 2.67374C3.13033 2.21813 3.86902 2.21813 4.32463 2.67374L25.3246 23.6737C25.7802 24.1294 25.7802 24.868 25.3246 25.3237C24.869 25.7793 24.1303 25.7793 23.6747 25.3237L2.67472 4.32366C2.2191 3.86804 2.2191 3.12935 2.67472 2.67374Z" fill="#A4A4A4"/>
</svg>
